<?xml version="1.0" standalone="no"?>
<!DOCTYPE svg PUBLIC "-//W3C//DTD SVG 20010904//EN"
 "http://www.w3.org/TR/2001/REC-SVG-20010904/DTD/svg10.dtd">
<svg version="1.0" xmlns="http://www.w3.org/2000/svg"
 width="48.000000pt" height="48.000000pt" viewBox="0 0 48.000000 48.000000"
 preserveAspectRatio="xMidYMid meet">

<g transform="translate(0.000000,48.000000) scale(0.100000,-0.100000)"
fill="#000000" stroke="none">
<path d="M180 453 c0 -10 -22 -41 -50 -68 -53 -52 -62 -78 -31 -94 14 -8 22
-7 32 5 14 17 69 48 75 42 2 -2 -6 -24 -18 -48 -14 -29 -23 -66 -24 -108 -2
-53 -7 -68 -28 -89 -14 -14 -28 -34 -31 -44 -4 -10 -11 -19 -16 -19 -5 0 -9
-4 -9 -10 0 -6 58 -10 155 -10 85 0 155 2 155 5 0 14 -52 85 -72 99 -12 9 -17
16 -10 16 7 0 10 5 7 11 -4 6 3 22 16 36 20 20 24 37 27 101 5 119 -37 179
-132 189 -40 5 -46 3 -46 -14z"/>
</g>
</svg>
