<?xml version="1.0" standalone="no"?>
<!DOCTYPE svg PUBLIC "-//W3C//DTD SVG 20010904//EN"
 "http://www.w3.org/TR/2001/REC-SVG-20010904/DTD/svg10.dtd">
<svg version="1.0" xmlns="http://www.w3.org/2000/svg"
 width="1024.000000pt" height="1024.000000pt" viewBox="0 0 1024.000000 1024.000000"
 preserveAspectRatio="xMidYMid meet">
<metadata>
Created by potrace 1.14, written by Peter Selinger 2001-2017
</metadata>
<g transform="translate(0.000000,1024.000000) scale(0.100000,-0.100000)"
fill="#000000" stroke="none">
<path d="M3939 10136 c-2 -2 -49 -7 -104 -11 -55 -3 -111 -8 -125 -10 -14 -2
-33 -3 -43 -4 -14 -1 -16 -7 -11 -33 3 -18 7 -46 9 -63 2 -16 6 -43 9 -60 3
-16 10 -61 16 -100 19 -120 20 -129 26 -158 3 -15 7 -44 9 -65 2 -20 8 -62 14
-92 6 -30 13 -75 16 -100 4 -24 9 -48 11 -52 3 -4 -483 -497 -1080 -1094
l-1085 -1087 4 -41 c3 -22 7 -61 10 -86 2 -25 7 -72 11 -105 3 -33 8 -71 9
-85 2 -14 6 -50 10 -80 3 -30 8 -71 10 -90 4 -43 14 -132 21 -185 3 -22 7 -53
9 -70 2 -16 5 -45 6 -63 3 -27 11 -37 49 -60 25 -15 54 -32 65 -39 11 -7 27
-16 35 -20 8 -4 60 -34 115 -66 55 -33 116 -69 135 -80 19 -10 99 -57 178
-103 79 -46 147 -84 152 -84 4 0 10 -3 12 -7 2 -5 21 -18 43 -30 l39 -22 36
72 c19 40 53 98 73 129 36 54 163 184 252 259 22 19 42 36 45 39 3 3 34 28 70
55 36 27 67 53 68 57 2 4 8 8 14 8 5 0 29 16 52 35 24 19 48 35 54 35 6 0 12
3 14 8 5 12 78 64 78 56 0 -4 7 1 15 12 8 10 15 15 15 9 0 -6 3 -6 8 0 8 11
169 115 178 115 3 0 18 8 32 18 25 18 124 74 200 113 18 10 39 23 47 29 8 7
15 9 15 5 0 -4 6 -3 13 3 13 11 243 127 312 157 22 9 56 25 75 33 19 9 37 17
40 17 3 1 28 12 55 24 28 13 55 24 60 25 6 1 26 9 45 18 48 21 202 70 206 66
1 -2 -13 -24 -33 -48 -20 -25 -62 -81 -94 -125 -33 -44 -64 -86 -70 -93 -32
-39 -173 -257 -253 -392 -87 -146 -212 -387 -265 -510 -13 -30 -32 -73 -42
-95 -39 -86 -143 -359 -154 -405 -1 -3 -4 -12 -8 -20 -8 -20 -58 -181 -62
-200 -2 -8 -4 -15 -5 -15 -1 0 -3 -7 -5 -15 -1 -8 -10 -42 -19 -75 -9 -33 -18
-67 -20 -75 -2 -8 -11 -41 -19 -72 -8 -31 -12 -59 -9 -62 3 -3 1 -6 -4 -6 -5
0 -10 -10 -10 -22 -2 -25 -12 -83 -14 -83 -2 0 -5 -14 -13 -60 -3 -16 -8 -41
-11 -55 -4 -23 -33 -195 -41 -250 -14 -94 -21 -153 -30 -256 -3 -33 -7 -69 -9
-80 -9 -48 -20 -337 -19 -529 0 -182 6 -320 19 -455 16 -175 17 -163 -19 -185
-72 -45 -99 -168 -54 -255 42 -83 45 -84 312 -84 129 -1 235 -2 235 -4 0 -2
-41 -21 -60 -27 -55 -18 -387 -189 -400 -205 -3 -4 -21 -15 -40 -26 -19 -10
-37 -21 -40 -24 -3 -3 -25 -18 -50 -34 -56 -36 -241 -178 -294 -226 -46 -40
-250 -244 -284 -283 -32 -36 -154 -190 -172 -217 -8 -12 -21 -28 -27 -36 -7
-7 -13 -15 -13 -18 0 -4 -15 -28 -33 -54 -70 -100 -247 -430 -247 -460 0 -5
-8 -26 -19 -48 -10 -21 -28 -70 -40 -109 -13 -38 -25 -77 -28 -85 -9 -23 -11
-28 -41 -145 l-29 -109 -124 -2 c-105 -1 -131 -4 -170 -23 -194 -93 -197 -346
-5 -442 34 -18 65 -22 176 -25 74 -3 144 -4 155 -4 11 1 43 1 70 1 75 -1 108
-1 253 2 72 1 132 -2 132 -7 0 -5 6 -4 12 1 7 5 40 7 73 6 33 -2 78 -3 100 -3
22 0 99 0 170 0 72 0 139 0 150 1 11 0 43 0 70 0 75 -1 108 -1 253 2 72 1 132
-2 132 -7 0 -5 6 -4 13 1 6 5 39 7 72 6 33 -2 78 -3 100 -3 22 0 99 0 170 0
72 0 139 0 150 1 11 0 43 0 70 0 75 -1 108 -1 253 2 72 1 132 -2 132 -7 0 -5
6 -4 13 1 6 5 39 7 72 6 33 -2 78 -3 100 -3 22 0 99 0 170 0 72 0 139 0 150 1
11 0 43 0 70 0 75 -1 108 -1 253 2 72 1 132 -2 132 -7 0 -5 6 -4 13 1 6 5 39
7 72 6 33 -2 78 -3 100 -3 22 0 99 0 170 0 72 0 139 0 150 1 11 0 43 0 70 0
75 -1 108 -1 253 2 72 1 132 -2 132 -7 0 -5 6 -4 13 1 6 5 39 7 72 6 33 -2 78
-3 100 -3 22 0 99 0 170 0 72 0 139 0 150 1 11 0 43 0 70 0 75 -1 108 -1 253
2 72 1 132 -2 132 -7 0 -5 6 -4 13 1 6 5 39 7 72 6 33 -2 78 -3 100 -3 69 0
300 0 310 0 6 0 21 1 35 3 14 2 33 -1 43 -5 9 -5 17 -5 17 -1 0 4 36 8 80 8
44 0 80 -4 80 -8 0 -5 5 -5 12 -1 6 4 61 8 122 9 132 2 180 19 239 84 46 51
58 80 64 149 7 94 -46 180 -142 229 -43 23 -65 26 -173 29 -128 4 -146 8 -139
27 2 7 -2 29 -9 50 -7 20 -11 37 -9 37 2 0 -3 19 -11 43 -9 23 -17 49 -18 57
-1 8 -5 22 -8 30 -4 8 -14 40 -23 70 -33 104 -158 387 -204 460 -5 8 -27 44
-47 80 -21 36 -42 66 -46 68 -4 2 -8 8 -8 12 0 9 -51 88 -77 120 -6 8 -30 40
-52 70 -96 130 -256 302 -392 420 -34 30 -67 60 -74 66 -31 31 -269 204 -280
204 -7 0 -15 3 -17 8 -13 29 -421 247 -501 267 -15 4 -29 10 -31 14 -2 3 101
6 230 7 262 0 270 2 310 69 43 75 37 183 -14 240 -37 42 -66 51 -149 50 -40 0
-73 0 -73 1 0 0 5 15 10 31 8 21 34 46 83 79 40 27 80 56 91 64 82 65 172 147
231 209 38 41 79 84 90 96 11 12 33 39 49 61 17 21 33 41 36 44 3 3 21 28 40
55 19 28 43 60 54 72 11 13 15 23 10 23 -5 0 -4 4 2 8 37 25 264 461 264 507
0 8 4 15 8 17 9 3 112 309 137 408 19 71 22 85 40 170 3 14 10 45 16 70 12 58
15 75 24 135 4 28 9 59 11 69 6 33 24 169 29 226 3 31 7 71 10 90 25 196 25
854 0 1104 -3 21 -7 70 -10 110 -3 39 -7 82 -10 96 -2 14 -7 52 -10 85 -3 33
-8 74 -11 90 -2 17 -6 50 -8 75 -3 25 -7 59 -10 75 -3 17 -8 48 -11 70 -3 22
-7 51 -10 65 -3 14 -8 41 -11 60 -3 19 -10 55 -16 80 -5 25 -11 56 -13 70 -6
38 -76 313 -83 325 -4 6 -7 15 -9 20 -7 35 -15 59 -42 135 -16 47 -48 130 -71
185 -23 55 -44 108 -47 118 -3 9 -10 17 -16 17 -6 0 -8 3 -5 6 6 6 -74 166
-131 262 -17 29 -31 57 -31 62 0 6 -4 10 -8 10 -5 0 -15 12 -23 28 -20 40
-155 226 -189 262 -8 9 -27 31 -41 50 -40 53 -235 248 -314 314 -38 32 -71 63
-73 67 -2 5 -10 9 -17 9 -7 0 -15 3 -17 8 -8 18 -199 152 -217 152 -6 0 -11 3
-11 8 0 6 -19 19 -85 57 -162 94 -508 253 -610 279 -5 1 -41 13 -80 25 -38 12
-95 29 -125 37 -30 8 -62 17 -70 21 -8 3 -24 7 -35 8 -11 2 -47 10 -80 19 -33
8 -78 18 -100 21 -22 3 -47 8 -55 11 -8 4 -31 8 -50 10 -19 2 -46 6 -60 10
-14 4 -38 8 -55 10 -16 1 -46 6 -65 10 -19 3 -51 8 -70 9 -79 7 -177 18 -205
22 -38 5 -651 14 -656 9z"/>
</g>
</svg>
